<mxfile host="app.diagrams.net" agent="Mozilla/5.0 (X11; Linux x86_64; rv:138.0) Gecko/20100101 Firefox/138.0" version="27.0.5">
  <diagram name="Страница — 1" id="JRH4Rd3rPlP7FgUDZ7rS">
    <mxGraphModel dx="1642" dy="1599" grid="1" gridSize="10" guides="1" tooltips="1" connect="1" arrows="1" fold="1" page="1" pageScale="1" pageWidth="827" pageHeight="1169" math="0" shadow="0">
      <root>
        <mxCell id="0" />
        <mxCell id="1" parent="0" />
        <mxCell id="5UeS4m41WXDY9R93oVrC-1" value="&lt;div&gt;&lt;br&gt;&lt;/div&gt;&lt;div&gt;&lt;br&gt;&lt;/div&gt;&lt;div&gt;&lt;br&gt;&lt;/div&gt;&lt;div&gt;&lt;br&gt;&lt;/div&gt;&lt;div&gt;&lt;br&gt;&lt;/div&gt;&lt;div&gt;&lt;br&gt;&lt;/div&gt;&lt;div&gt;&lt;br&gt;&lt;/div&gt;&lt;div&gt;&lt;br&gt;&lt;/div&gt;&lt;div&gt;&lt;br&gt;&lt;/div&gt;&lt;div&gt;&lt;br&gt;&lt;/div&gt;&lt;div&gt;&lt;br&gt;&lt;/div&gt;&lt;div&gt;&lt;br&gt;&lt;/div&gt;&lt;div&gt;&lt;br&gt;&lt;/div&gt;&lt;div&gt;&lt;br&gt;&lt;/div&gt;&lt;div&gt;&lt;br&gt;&lt;/div&gt;&lt;div&gt;vl100&lt;/div&gt;" style="shape=ext;double=1;rounded=1;whiteSpace=wrap;html=1;fillColor=light-dark(#FFFFFF,#333300);" vertex="1" parent="1">
          <mxGeometry x="-60" y="573.5" width="147" height="256.5" as="geometry" />
        </mxCell>
        <mxCell id="5UeS4m41WXDY9R93oVrC-2" value="&lt;div&gt;&lt;br&gt;&lt;/div&gt;&lt;div&gt;&lt;br&gt;&lt;/div&gt;&lt;div&gt;&lt;br&gt;&lt;/div&gt;&lt;div&gt;&lt;br&gt;&lt;/div&gt;&lt;div&gt;&lt;br&gt;&lt;/div&gt;&lt;div&gt;&lt;br&gt;&lt;/div&gt;&lt;div&gt;&lt;br&gt;&lt;/div&gt;&lt;div&gt;&lt;br&gt;&lt;/div&gt;&lt;div&gt;&lt;br&gt;&lt;/div&gt;&lt;div&gt;&lt;br&gt;&lt;/div&gt;&lt;div&gt;&lt;br&gt;&lt;/div&gt;&lt;div&gt;&lt;br&gt;&lt;/div&gt;&lt;div&gt;&lt;br&gt;&lt;/div&gt;&lt;div&gt;&lt;br&gt;&lt;/div&gt;&lt;div&gt;&lt;br&gt;&lt;/div&gt;&lt;div&gt;vl200&lt;/div&gt;" style="shape=ext;double=1;rounded=1;whiteSpace=wrap;html=1;fillColor=light-dark(#FFFFFF,#003300);" vertex="1" parent="1">
          <mxGeometry x="170" y="570" width="160" height="265" as="geometry" />
        </mxCell>
        <mxCell id="5UeS4m41WXDY9R93oVrC-3" value="OSPF area 0" style="shape=ext;double=1;rounded=1;whiteSpace=wrap;html=1;fillColor=light-dark(#FFFFFF,#330066);" vertex="1" parent="1">
          <mxGeometry x="40" y="310" width="630" height="200" as="geometry" />
        </mxCell>
        <mxCell id="5UeS4m41WXDY9R93oVrC-62" value="eth1.100 .100.1/26&lt;div&gt;eth1.200 .200.1/28&lt;/div&gt;&lt;div&gt;eth1.999 .99.1/29&lt;/div&gt;&lt;div&gt;eth1 - trunks 100, 200&lt;/div&gt;&lt;div&gt;HQ-SW - bridge&lt;/div&gt;" style="shape=ext;double=1;rounded=1;whiteSpace=wrap;html=1;fillColor=#647687;fontColor=#ffffff;strokeColor=#314354;" vertex="1" parent="1">
          <mxGeometry x="65.5" y="414.5" width="127" height="85.5" as="geometry" />
        </mxCell>
        <mxCell id="5UeS4m41WXDY9R93oVrC-5" value="ISP" style="shape=mxgraph.cisco.routers.router;sketch=0;html=1;pointerEvents=1;dashed=0;fillColor=#036897;strokeColor=#ffffff;strokeWidth=2;verticalLabelPosition=bottom;verticalAlign=top;align=center;outlineConnect=0;" vertex="1" parent="1">
          <mxGeometry x="328" y="190" width="78" height="53" as="geometry" />
        </mxCell>
        <mxCell id="5UeS4m41WXDY9R93oVrC-6" value="Internet" style="shape=mxgraph.cisco.storage.cloud;sketch=0;html=1;pointerEvents=1;dashed=0;fillColor=#036897;strokeColor=#ffffff;strokeWidth=2;verticalLabelPosition=bottom;verticalAlign=top;align=center;outlineConnect=0;" vertex="1" parent="1">
          <mxGeometry x="274" y="-40" width="186" height="106" as="geometry" />
        </mxCell>
        <mxCell id="5UeS4m41WXDY9R93oVrC-7" style="edgeStyle=orthogonalEdgeStyle;shape=link;rounded=0;orthogonalLoop=1;jettySize=auto;html=1;exitX=1;exitY=0.5;exitDx=0;exitDy=0;exitPerimeter=0;entryX=0;entryY=0.5;entryDx=0;entryDy=0;entryPerimeter=0;" edge="1" parent="1" source="5UeS4m41WXDY9R93oVrC-13" target="5UeS4m41WXDY9R93oVrC-14">
          <mxGeometry relative="1" as="geometry">
            <mxPoint x="430" y="340" as="targetPoint" />
          </mxGeometry>
        </mxCell>
        <mxCell id="5UeS4m41WXDY9R93oVrC-8" value="tunnel@e0" style="edgeLabel;html=1;align=center;verticalAlign=middle;resizable=0;points=[];" vertex="1" connectable="0" parent="5UeS4m41WXDY9R93oVrC-7">
          <mxGeometry x="-0.8675" y="-3" relative="1" as="geometry">
            <mxPoint x="16" y="-3" as="offset" />
          </mxGeometry>
        </mxCell>
        <mxCell id="5UeS4m41WXDY9R93oVrC-9" value="10.0.0" style="edgeLabel;html=1;align=center;verticalAlign=middle;resizable=0;points=[];" vertex="1" connectable="0" parent="5UeS4m41WXDY9R93oVrC-7">
          <mxGeometry x="0.0713" y="-3" relative="1" as="geometry">
            <mxPoint x="-5" as="offset" />
          </mxGeometry>
        </mxCell>
        <mxCell id="5UeS4m41WXDY9R93oVrC-10" value=".1/30" style="edgeLabel;html=1;align=center;verticalAlign=middle;resizable=0;points=[];" vertex="1" connectable="0" parent="5UeS4m41WXDY9R93oVrC-7">
          <mxGeometry x="-0.5822" y="-2" relative="1" as="geometry">
            <mxPoint x="12" as="offset" />
          </mxGeometry>
        </mxCell>
        <mxCell id="5UeS4m41WXDY9R93oVrC-11" value=".2/30" style="edgeLabel;html=1;align=center;verticalAlign=middle;resizable=0;points=[];" vertex="1" connectable="0" parent="5UeS4m41WXDY9R93oVrC-7">
          <mxGeometry x="0.8796" y="1" relative="1" as="geometry">
            <mxPoint x="-67" y="5" as="offset" />
          </mxGeometry>
        </mxCell>
        <mxCell id="5UeS4m41WXDY9R93oVrC-12" value="tunnel@e0" style="edgeLabel;html=1;align=center;verticalAlign=middle;resizable=0;points=[];" vertex="1" connectable="0" parent="5UeS4m41WXDY9R93oVrC-7">
          <mxGeometry x="0.8399" y="-2" relative="1" as="geometry">
            <mxPoint x="-10" as="offset" />
          </mxGeometry>
        </mxCell>
        <mxCell id="5UeS4m41WXDY9R93oVrC-13" value="HQ-RTR" style="shape=mxgraph.cisco.routers.router;sketch=0;html=1;pointerEvents=1;dashed=0;fillColor=#036897;strokeColor=#ffffff;strokeWidth=2;verticalLabelPosition=bottom;verticalAlign=top;align=center;outlineConnect=0;" vertex="1" parent="1">
          <mxGeometry x="90" y="320" width="78" height="53" as="geometry" />
        </mxCell>
        <mxCell id="5UeS4m41WXDY9R93oVrC-14" value="BR-RTR" style="shape=mxgraph.cisco.routers.router;sketch=0;html=1;pointerEvents=1;dashed=0;fillColor=#036897;strokeColor=#ffffff;strokeWidth=2;verticalLabelPosition=bottom;verticalAlign=top;align=center;outlineConnect=0;" vertex="1" parent="1">
          <mxGeometry x="550" y="320" width="78" height="53" as="geometry" />
        </mxCell>
        <mxCell id="5UeS4m41WXDY9R93oVrC-15" value="&lt;div&gt;BR-NET&lt;/div&gt;" style="shape=mxgraph.cisco.hubs_and_gateways.small_hub;sketch=0;html=1;pointerEvents=1;dashed=0;fillColor=#036897;strokeColor=#ffffff;strokeWidth=2;verticalLabelPosition=bottom;verticalAlign=top;align=center;outlineConnect=0;" vertex="1" parent="1">
          <mxGeometry x="544" y="562" width="90" height="45" as="geometry" />
        </mxCell>
        <mxCell id="5UeS4m41WXDY9R93oVrC-16" style="edgeStyle=orthogonalEdgeStyle;rounded=0;orthogonalLoop=1;jettySize=auto;html=1;exitX=0;exitY=0.5;exitDx=0;exitDy=0;exitPerimeter=0;shape=link;" edge="1" parent="1" source="5UeS4m41WXDY9R93oVrC-61" target="5UeS4m41WXDY9R93oVrC-21">
          <mxGeometry relative="1" as="geometry">
            <mxPoint x="97" y="612" as="sourcePoint" />
          </mxGeometry>
        </mxCell>
        <mxCell id="5UeS4m41WXDY9R93oVrC-17" value="e0" style="edgeLabel;html=1;align=center;verticalAlign=middle;resizable=0;points=[];" vertex="1" connectable="0" parent="5UeS4m41WXDY9R93oVrC-16">
          <mxGeometry x="0.7464" y="-2" relative="1" as="geometry">
            <mxPoint y="4" as="offset" />
          </mxGeometry>
        </mxCell>
        <mxCell id="5UeS4m41WXDY9R93oVrC-18" value="vlan_tag 100" style="edgeLabel;html=1;align=center;verticalAlign=middle;resizable=0;points=[];" vertex="1" connectable="0" parent="5UeS4m41WXDY9R93oVrC-16">
          <mxGeometry x="-0.8586" y="2" relative="1" as="geometry">
            <mxPoint x="-36" y="-4" as="offset" />
          </mxGeometry>
        </mxCell>
        <mxCell id="5UeS4m41WXDY9R93oVrC-19" value="172.16.100.2/26" style="edgeLabel;html=1;align=center;verticalAlign=middle;resizable=0;points=[];" vertex="1" connectable="0" parent="5UeS4m41WXDY9R93oVrC-16">
          <mxGeometry x="0.5373" y="-2" relative="1" as="geometry">
            <mxPoint as="offset" />
          </mxGeometry>
        </mxCell>
        <mxCell id="5UeS4m41WXDY9R93oVrC-21" value="HQ-SRV" style="shape=mxgraph.cisco.servers.fileserver;sketch=0;html=1;pointerEvents=1;dashed=0;fillColor=#036897;strokeColor=#ffffff;strokeWidth=2;verticalLabelPosition=bottom;verticalAlign=top;align=center;outlineConnect=0;" vertex="1" parent="1">
          <mxGeometry x="-20" y="714" width="43" height="62" as="geometry" />
        </mxCell>
        <mxCell id="5UeS4m41WXDY9R93oVrC-22" value="HQ-CLI" style="shape=mxgraph.cisco.computers_and_peripherals.pc;sketch=0;html=1;pointerEvents=1;dashed=0;fillColor=#036897;strokeColor=#ffffff;strokeWidth=2;verticalLabelPosition=bottom;verticalAlign=top;align=center;outlineConnect=0;" vertex="1" parent="1">
          <mxGeometry x="220.28" y="706" width="78" height="70" as="geometry" />
        </mxCell>
        <mxCell id="5UeS4m41WXDY9R93oVrC-23" value="BR-SRV" style="shape=mxgraph.cisco.servers.fileserver;sketch=0;html=1;pointerEvents=1;dashed=0;fillColor=#036897;strokeColor=#ffffff;strokeWidth=2;verticalLabelPosition=bottom;verticalAlign=top;align=center;outlineConnect=0;" vertex="1" parent="1">
          <mxGeometry x="480" y="680" width="43" height="62" as="geometry" />
        </mxCell>
        <mxCell id="5UeS4m41WXDY9R93oVrC-24" value="BR-DC" style="shape=mxgraph.cisco.servers.fileserver;sketch=0;html=1;pointerEvents=1;dashed=0;fillColor=#036897;strokeColor=#ffffff;strokeWidth=2;verticalLabelPosition=bottom;verticalAlign=top;align=center;outlineConnect=0;" vertex="1" parent="1">
          <mxGeometry x="670" y="680" width="43" height="62" as="geometry" />
        </mxCell>
        <mxCell id="5UeS4m41WXDY9R93oVrC-25" style="edgeStyle=orthogonalEdgeStyle;rounded=0;orthogonalLoop=1;jettySize=auto;html=1;exitX=0.5;exitY=0;exitDx=0;exitDy=0;exitPerimeter=0;entryX=0.5;entryY=0.99;entryDx=0;entryDy=0;entryPerimeter=0;shape=link;" edge="1" parent="1" source="5UeS4m41WXDY9R93oVrC-5" target="5UeS4m41WXDY9R93oVrC-6">
          <mxGeometry relative="1" as="geometry" />
        </mxCell>
        <mxCell id="5UeS4m41WXDY9R93oVrC-26" value="e0" style="edgeLabel;html=1;align=center;verticalAlign=middle;resizable=0;points=[];" vertex="1" connectable="0" parent="5UeS4m41WXDY9R93oVrC-25">
          <mxGeometry x="-0.5773" y="-2" relative="1" as="geometry">
            <mxPoint as="offset" />
          </mxGeometry>
        </mxCell>
        <mxCell id="5UeS4m41WXDY9R93oVrC-27" style="edgeStyle=orthogonalEdgeStyle;rounded=0;orthogonalLoop=1;jettySize=auto;html=1;exitX=1;exitY=0.5;exitDx=0;exitDy=0;exitPerimeter=0;entryX=0.5;entryY=0;entryDx=0;entryDy=0;entryPerimeter=0;shape=link;" edge="1" parent="1" source="5UeS4m41WXDY9R93oVrC-5" target="5UeS4m41WXDY9R93oVrC-14">
          <mxGeometry relative="1" as="geometry" />
        </mxCell>
        <mxCell id="5UeS4m41WXDY9R93oVrC-28" value="e2" style="edgeLabel;html=1;align=center;verticalAlign=middle;resizable=0;points=[];" vertex="1" connectable="0" parent="5UeS4m41WXDY9R93oVrC-27">
          <mxGeometry x="-0.7886" y="1" relative="1" as="geometry">
            <mxPoint x="-16" as="offset" />
          </mxGeometry>
        </mxCell>
        <mxCell id="5UeS4m41WXDY9R93oVrC-29" value="e0" style="edgeLabel;html=1;align=center;verticalAlign=middle;resizable=0;points=[];" vertex="1" connectable="0" parent="5UeS4m41WXDY9R93oVrC-27">
          <mxGeometry x="0.871" y="1" relative="1" as="geometry">
            <mxPoint as="offset" />
          </mxGeometry>
        </mxCell>
        <mxCell id="5UeS4m41WXDY9R93oVrC-30" value="172.16.5" style="edgeLabel;html=1;align=center;verticalAlign=middle;resizable=0;points=[];" vertex="1" connectable="0" parent="5UeS4m41WXDY9R93oVrC-27">
          <mxGeometry x="-0.1066" y="-1" relative="1" as="geometry">
            <mxPoint as="offset" />
          </mxGeometry>
        </mxCell>
        <mxCell id="5UeS4m41WXDY9R93oVrC-31" value=".1/28" style="edgeLabel;html=1;align=center;verticalAlign=middle;resizable=0;points=[];" vertex="1" connectable="0" parent="5UeS4m41WXDY9R93oVrC-27">
          <mxGeometry x="-0.7949" y="-2" relative="1" as="geometry">
            <mxPoint x="14" as="offset" />
          </mxGeometry>
        </mxCell>
        <mxCell id="5UeS4m41WXDY9R93oVrC-32" value=".2/28" style="edgeLabel;html=1;align=center;verticalAlign=middle;resizable=0;points=[];" vertex="1" connectable="0" parent="5UeS4m41WXDY9R93oVrC-27">
          <mxGeometry x="0.717" y="1" relative="1" as="geometry">
            <mxPoint as="offset" />
          </mxGeometry>
        </mxCell>
        <mxCell id="5UeS4m41WXDY9R93oVrC-33" style="edgeStyle=orthogonalEdgeStyle;rounded=0;orthogonalLoop=1;jettySize=auto;html=1;exitX=0;exitY=0.5;exitDx=0;exitDy=0;exitPerimeter=0;entryX=0.5;entryY=0;entryDx=0;entryDy=0;entryPerimeter=0;shape=link;" edge="1" parent="1" source="5UeS4m41WXDY9R93oVrC-5" target="5UeS4m41WXDY9R93oVrC-13">
          <mxGeometry relative="1" as="geometry" />
        </mxCell>
        <mxCell id="5UeS4m41WXDY9R93oVrC-34" value="e1" style="edgeLabel;html=1;align=center;verticalAlign=middle;resizable=0;points=[];" vertex="1" connectable="0" parent="5UeS4m41WXDY9R93oVrC-33">
          <mxGeometry x="-0.6895" y="1" relative="1" as="geometry">
            <mxPoint x="29" as="offset" />
          </mxGeometry>
        </mxCell>
        <mxCell id="5UeS4m41WXDY9R93oVrC-35" value="e0" style="edgeLabel;html=1;align=center;verticalAlign=middle;resizable=0;points=[];" vertex="1" connectable="0" parent="5UeS4m41WXDY9R93oVrC-33">
          <mxGeometry x="0.8641" y="-1" relative="1" as="geometry">
            <mxPoint as="offset" />
          </mxGeometry>
        </mxCell>
        <mxCell id="5UeS4m41WXDY9R93oVrC-36" value="172.16.4" style="edgeLabel;html=1;align=center;verticalAlign=middle;resizable=0;points=[];" vertex="1" connectable="0" parent="5UeS4m41WXDY9R93oVrC-33">
          <mxGeometry x="0.2006" y="2" relative="1" as="geometry">
            <mxPoint as="offset" />
          </mxGeometry>
        </mxCell>
        <mxCell id="5UeS4m41WXDY9R93oVrC-37" value=".1/28" style="edgeLabel;html=1;align=center;verticalAlign=middle;resizable=0;points=[];" vertex="1" connectable="0" parent="5UeS4m41WXDY9R93oVrC-33">
          <mxGeometry x="-0.6065" relative="1" as="geometry">
            <mxPoint as="offset" />
          </mxGeometry>
        </mxCell>
        <mxCell id="5UeS4m41WXDY9R93oVrC-38" value=".2/28" style="edgeLabel;html=1;align=center;verticalAlign=middle;resizable=0;points=[];" vertex="1" connectable="0" parent="5UeS4m41WXDY9R93oVrC-33">
          <mxGeometry x="0.741" y="-2" relative="1" as="geometry">
            <mxPoint as="offset" />
          </mxGeometry>
        </mxCell>
        <mxCell id="5UeS4m41WXDY9R93oVrC-39" style="edgeStyle=orthogonalEdgeStyle;rounded=0;orthogonalLoop=1;jettySize=auto;html=1;exitX=0.5;exitY=1;exitDx=0;exitDy=0;exitPerimeter=0;entryX=0.5;entryY=0;entryDx=0;entryDy=0;entryPerimeter=0;shape=link;" edge="1" parent="1" source="5UeS4m41WXDY9R93oVrC-14" target="5UeS4m41WXDY9R93oVrC-15">
          <mxGeometry relative="1" as="geometry" />
        </mxCell>
        <mxCell id="5UeS4m41WXDY9R93oVrC-40" value="e1" style="edgeLabel;html=1;align=center;verticalAlign=middle;resizable=0;points=[];" vertex="1" connectable="0" parent="5UeS4m41WXDY9R93oVrC-39">
          <mxGeometry x="-0.4536" y="-2" relative="1" as="geometry">
            <mxPoint y="-15" as="offset" />
          </mxGeometry>
        </mxCell>
        <mxCell id="5UeS4m41WXDY9R93oVrC-41" value=".1/27" style="edgeLabel;html=1;align=center;verticalAlign=middle;resizable=0;points=[];" vertex="1" connectable="0" parent="5UeS4m41WXDY9R93oVrC-39">
          <mxGeometry x="-0.1942" y="-1" relative="1" as="geometry">
            <mxPoint y="-19" as="offset" />
          </mxGeometry>
        </mxCell>
        <mxCell id="5UeS4m41WXDY9R93oVrC-42" value="172.16.0" style="edgeLabel;html=1;align=center;verticalAlign=middle;resizable=0;points=[];" vertex="1" connectable="0" parent="5UeS4m41WXDY9R93oVrC-39">
          <mxGeometry x="0.5485" relative="1" as="geometry">
            <mxPoint x="1" y="1" as="offset" />
          </mxGeometry>
        </mxCell>
        <mxCell id="5UeS4m41WXDY9R93oVrC-50" style="edgeStyle=orthogonalEdgeStyle;rounded=0;orthogonalLoop=1;jettySize=auto;html=1;exitX=0.99;exitY=0.5;exitDx=0;exitDy=0;exitPerimeter=0;entryX=0.5;entryY=0;entryDx=0;entryDy=0;entryPerimeter=0;shape=link;" edge="1" parent="1" source="5UeS4m41WXDY9R93oVrC-15" target="5UeS4m41WXDY9R93oVrC-24">
          <mxGeometry relative="1" as="geometry" />
        </mxCell>
        <mxCell id="5UeS4m41WXDY9R93oVrC-51" value="e0" style="edgeLabel;html=1;align=center;verticalAlign=middle;resizable=0;points=[];" vertex="1" connectable="0" parent="5UeS4m41WXDY9R93oVrC-50">
          <mxGeometry x="0.7468" y="5" relative="1" as="geometry">
            <mxPoint as="offset" />
          </mxGeometry>
        </mxCell>
        <mxCell id="5UeS4m41WXDY9R93oVrC-52" value=".3/27" style="edgeLabel;html=1;align=center;verticalAlign=middle;resizable=0;points=[];" vertex="1" connectable="0" parent="5UeS4m41WXDY9R93oVrC-50">
          <mxGeometry x="0.5452" y="2" relative="1" as="geometry">
            <mxPoint as="offset" />
          </mxGeometry>
        </mxCell>
        <mxCell id="5UeS4m41WXDY9R93oVrC-53" style="edgeStyle=orthogonalEdgeStyle;rounded=0;orthogonalLoop=1;jettySize=auto;html=1;exitX=0;exitY=0.5;exitDx=0;exitDy=0;exitPerimeter=0;entryX=0.5;entryY=0;entryDx=0;entryDy=0;entryPerimeter=0;shape=link;" edge="1" parent="1" source="5UeS4m41WXDY9R93oVrC-15" target="5UeS4m41WXDY9R93oVrC-23">
          <mxGeometry relative="1" as="geometry" />
        </mxCell>
        <mxCell id="5UeS4m41WXDY9R93oVrC-54" value="e0" style="edgeLabel;html=1;align=center;verticalAlign=middle;resizable=0;points=[];" vertex="1" connectable="0" parent="5UeS4m41WXDY9R93oVrC-53">
          <mxGeometry x="0.7461" y="-4" relative="1" as="geometry">
            <mxPoint as="offset" />
          </mxGeometry>
        </mxCell>
        <mxCell id="5UeS4m41WXDY9R93oVrC-55" value=".2/27" style="edgeLabel;html=1;align=center;verticalAlign=middle;resizable=0;points=[];" vertex="1" connectable="0" parent="5UeS4m41WXDY9R93oVrC-53">
          <mxGeometry x="0.4865" y="1" relative="1" as="geometry">
            <mxPoint as="offset" />
          </mxGeometry>
        </mxCell>
        <mxCell id="5UeS4m41WXDY9R93oVrC-56" style="edgeStyle=orthogonalEdgeStyle;rounded=0;orthogonalLoop=1;jettySize=auto;html=1;exitX=1;exitY=0.5;exitDx=0;exitDy=0;exitPerimeter=0;entryX=0.5;entryY=0;entryDx=0;entryDy=0;entryPerimeter=0;shape=link;" edge="1" parent="1" source="5UeS4m41WXDY9R93oVrC-61" target="5UeS4m41WXDY9R93oVrC-22">
          <mxGeometry relative="1" as="geometry">
            <mxPoint x="161" y="612" as="sourcePoint" />
          </mxGeometry>
        </mxCell>
        <mxCell id="5UeS4m41WXDY9R93oVrC-57" value="&lt;div&gt;vlan_tag=200&lt;/div&gt;" style="edgeLabel;html=1;align=center;verticalAlign=middle;resizable=0;points=[];" vertex="1" connectable="0" parent="5UeS4m41WXDY9R93oVrC-56">
          <mxGeometry x="-0.7446" y="1" relative="1" as="geometry">
            <mxPoint x="21" y="-1" as="offset" />
          </mxGeometry>
        </mxCell>
        <mxCell id="5UeS4m41WXDY9R93oVrC-58" value="172.16.200.2/28" style="edgeLabel;html=1;align=center;verticalAlign=middle;resizable=0;points=[];" vertex="1" connectable="0" parent="5UeS4m41WXDY9R93oVrC-56">
          <mxGeometry x="0.6191" y="2" relative="1" as="geometry">
            <mxPoint as="offset" />
          </mxGeometry>
        </mxCell>
        <mxCell id="5UeS4m41WXDY9R93oVrC-59" value="ens3" style="edgeLabel;html=1;align=center;verticalAlign=middle;resizable=0;points=[];" vertex="1" connectable="0" parent="5UeS4m41WXDY9R93oVrC-56">
          <mxGeometry x="0.8196" y="-1" relative="1" as="geometry">
            <mxPoint as="offset" />
          </mxGeometry>
        </mxCell>
        <mxCell id="5UeS4m41WXDY9R93oVrC-61" value="&lt;div&gt;proxmox-br&lt;/div&gt;" style="sketch=0;points=[[0.015,0.015,0],[0.985,0.015,0],[0.985,0.985,0],[0.015,0.985,0],[0.25,0,0],[0.5,0,0],[0.75,0,0],[1,0.25,0],[1,0.5,0],[1,0.75,0],[0.75,1,0],[0.5,1,0],[0.25,1,0],[0,0.75,0],[0,0.5,0],[0,0.25,0]];verticalLabelPosition=bottom;html=1;verticalAlign=top;aspect=fixed;align=center;pointerEvents=1;shape=mxgraph.cisco19.rect;prIcon=l2_switch;fillColor=#FAFAFA;strokeColor=#005073;" vertex="1" parent="1">
          <mxGeometry x="94" y="573.5" width="70" height="70" as="geometry" />
        </mxCell>
        <mxCell id="5UeS4m41WXDY9R93oVrC-69" style="edgeStyle=none;shape=link;rounded=0;orthogonalLoop=1;jettySize=auto;html=1;exitX=0.5;exitY=0;exitDx=0;exitDy=0;entryX=0.5;entryY=1;entryDx=0;entryDy=0;entryPerimeter=0;" edge="1" parent="1" source="5UeS4m41WXDY9R93oVrC-62" target="5UeS4m41WXDY9R93oVrC-13">
          <mxGeometry relative="1" as="geometry" />
        </mxCell>
        <mxCell id="5UeS4m41WXDY9R93oVrC-70" value="172.16" style="edgeLabel;html=1;align=center;verticalAlign=middle;resizable=0;points=[];" vertex="1" connectable="0" parent="5UeS4m41WXDY9R93oVrC-69">
          <mxGeometry x="-0.4871" y="1" relative="1" as="geometry">
            <mxPoint as="offset" />
          </mxGeometry>
        </mxCell>
        <mxCell id="5UeS4m41WXDY9R93oVrC-71" style="edgeStyle=none;shape=link;rounded=0;orthogonalLoop=1;jettySize=auto;html=1;exitX=0.5;exitY=1;exitDx=0;exitDy=0;entryX=0.5;entryY=0;entryDx=0;entryDy=0;entryPerimeter=0;" edge="1" parent="1" source="5UeS4m41WXDY9R93oVrC-62" target="5UeS4m41WXDY9R93oVrC-61">
          <mxGeometry relative="1" as="geometry" />
        </mxCell>
        <mxCell id="5UeS4m41WXDY9R93oVrC-73" value="e1" style="edgeLabel;html=1;align=center;verticalAlign=middle;resizable=0;points=[];" vertex="1" connectable="0" parent="5UeS4m41WXDY9R93oVrC-71">
          <mxGeometry x="-0.3749" y="-1" relative="1" as="geometry">
            <mxPoint as="offset" />
          </mxGeometry>
        </mxCell>
      </root>
    </mxGraphModel>
  </diagram>
</mxfile>
